<?xml version="1.0" encoding="UTF-8"?>
<svg viewBox="0 0 128 128" xmlns="http://www.w3.org/2000/svg">
 <path d="m106.71 28.014c-4.8905 0-8.791 3.9676-8.791 8.8582v10.402c2.0677 1.0216 4.4112 1.6106 6.8449 1.6106 8.8668 0 16.039-7.5726 16.039-16.911 0-1.3618-0.1808-2.6904-0.46975-3.9593h-13.623z" fill="#f00" stroke="#000" stroke-linejoin="round" stroke-width="4"/>
 <path d="m80 11.237c-13.043 0-23.622 10.888-23.622 24.293 0 7.7316 3.5093 14.61 8.9924 19.058-3.2436-0.33783-6.5622-0.53686-9.9319-0.53686-4.8629 0-9.6052 0.45112-14.227 1.1408-3.8847-8.1268-12.934-15.106-20.41-17.24-10.119 11.161-12.098 22.857-12.002 33.284 0.11133 12.122 3.6185 21.56 8.5888 28.852 11.516 6.4736 25.352 10.267 40.197 10.267 12.481 0 24.223-2.6856 34.493-7.3818 6.567-7.8888 10.536-17.982 10.536-28.99 0-7.8577-2.0187-15.23-5.5699-21.676 4.0666-4.3627 6.5765-10.263 6.5765-16.777 0-13.405-10.579-24.293-23.622-24.293z" fill="#ffff0e" stroke="#000" stroke-linejoin="round" stroke-width="6"/>
 <path transform="matrix(1.6225 0 0 1.5047 19.96 6.8349)" d="m43.13 14.642a2.4668 2.5464 0 1 1 -4.9337 0 2.4668 2.5464 0 1 1 4.9337 0z" fill="#050505" stroke="#000" stroke-linejoin="round" stroke-width="2"/>
</svg>
